HIERARCHY
ROOT Hips
{
	OFFSET 0.000000 0.000000 0.000000
	CHANNELS 6 Xposition Yposition Zposition Xrotation Yrotation Zrotation
	JOINT LeftUpLeg_virtual
	{
		OFFSET 0.000000 0.000000 0.000000
		CHANNELS 3 Xrotation Yrotation Zrotation
		JOINT LeftUpLeg
		{
			OFFSET 15.427100 -6.655098 0.678600
			CHANNELS 3 Xrotation Yrotation Zrotation
			JOINT LeftLeg
			{
				OFFSET 4.081073 -39.591068 13.024000
				CHANNELS 3 Xrotation Yrotation Zrotation
				JOINT LeftFoot
				{
					OFFSET -4.081074 -37.707932 -15.979700
					CHANNELS 3 Xrotation Yrotation Zrotation
					JOINT LeftToeBase
					{
						OFFSET 5.346399 -15.068900 20.645000
						CHANNELS 3 Xrotation Yrotation Zrotation
						JOINT LeftToe_End
						{
							OFFSET 2.754700 0.931300 11.300900
							CHANNELS 3 Xrotation Yrotation Zrotation
							End Site
							{
								OFFSET 0 0 0
							}
						}
					}
				}
			}
		}
	}
	JOINT RightUpLeg_virtual
	{
		OFFSET 0.000000 0.000000 0.000000
		CHANNELS 3 Xrotation Yrotation Zrotation
		JOINT RightUpLeg
		{
			OFFSET -15.569500 -6.655098 0.678600
			CHANNELS 3 Xrotation Yrotation Zrotation
			JOINT RightLeg
			{
				OFFSET -4.081825 -39.591045 13.023800
				CHANNELS 3 Xrotation Yrotation Zrotation
				JOINT RightFoot
				{
					OFFSET 4.081824 -37.707954 -15.979600
					CHANNELS 3 Xrotation Yrotation Zrotation
					JOINT RightToeBase
					{
						OFFSET -5.346400 -15.068900 20.645000
						CHANNELS 3 Xrotation Yrotation Zrotation
						JOINT RightToe_End
						{
							OFFSET -2.754700 0.931300 11.300900
							CHANNELS 3 Xrotation Yrotation Zrotation
							End Site
							{
								OFFSET 0 0 0
							}
						}
					}
				}
			}
		}
	}
	JOINT Spine_virtual
	{
		OFFSET 0.000000 0.000000 0.000000
		CHANNELS 3 Xrotation Yrotation Zrotation
		JOINT Spine
		{
			OFFSET -0.279200 12.230698 -2.892100
			CHANNELS 3 Xrotation Yrotation Zrotation
			JOINT Spine1
			{
				OFFSET -0.232667 10.192268 -1.242267
				CHANNELS 3 Xrotation Yrotation Zrotation
				JOINT Spine1_split
				{
					OFFSET -0.232667 10.192268 -1.242267
					CHANNELS 3 Xrotation Yrotation Zrotation
					JOINT Spine2
					{
						OFFSET -0.232667 10.192268 -1.242267
						CHANNELS 3 Xrotation Yrotation Zrotation
						JOINT Neck_virtual
						{
							OFFSET 0.000000 0.000000 0.000000
							CHANNELS 3 Xrotation Yrotation Zrotation
							JOINT Neck
							{
								OFFSET -0.418800 17.814194 8.416900
								CHANNELS 3 Xrotation Yrotation Zrotation
								JOINT Head
								{
									OFFSET 0.000000 7.031097 3.806800
									CHANNELS 3 Xrotation Yrotation Zrotation
									JOINT HeadTop_End
									{
										OFFSET 0.000000 24.646606 12.978600
										CHANNELS 3 Xrotation Yrotation Zrotation
										End Site
										{
											OFFSET 0 0 0
										}
									}
								}
							}
						}
						JOINT LeftShoulder_virtual
						{
							OFFSET 0.000000 0.000000 0.000000
							CHANNELS 3 Xrotation Yrotation Zrotation
							JOINT LeftShoulder
							{
								OFFSET 8.476499 7.247704 -3.868750
								CHANNELS 3 Xrotation Yrotation Zrotation
								JOINT LeftShoulder_split
								{
									OFFSET 8.476499 7.247704 -3.868750
									CHANNELS 3 Xrotation Yrotation Zrotation
									JOINT LeftArm
									{
										OFFSET 9.308998 -2.777710 0.208600
										CHANNELS 3 Xrotation Yrotation Zrotation
										JOINT LeftForeArm
										{
											OFFSET 29.972298 0.000000 0.000000
											CHANNELS 3 Xrotation Yrotation Zrotation
											JOINT LeftHand
											{
												OFFSET 26.026505 0.000000 0.000000
												CHANNELS 3 Xrotation Yrotation Zrotation
												End Site
												{
													OFFSET 0 0 0
												}
											}
										}
									}
								}
							}
						}
						JOINT RightShoulder_virtual
						{
							OFFSET 0.000000 0.000000 0.000000
							CHANNELS 3 Xrotation Yrotation Zrotation
							JOINT RightShoulder
							{
								OFFSET -7.570500 7.247704 -3.868750
								CHANNELS 3 Xrotation Yrotation Zrotation
								JOINT RightShoulder_split
								{
									OFFSET -7.570500 7.247704 -3.868750
									CHANNELS 3 Xrotation Yrotation Zrotation
									JOINT RightArm
									{
										OFFSET -9.308998 -2.777710 0.208500
										CHANNELS 3 Xrotation Yrotation Zrotation
										JOINT RightForeArm
										{
											OFFSET -29.972300 0.000000 0.000000
											CHANNELS 3 Xrotation Yrotation Zrotation
											JOINT RightHand
											{
												OFFSET -26.026505 0.000000 0.000000
												CHANNELS 3 Xrotation Yrotation Zrotation
												End Site
												{
													OFFSET 0 0 0
												}
											}
										}
									}
								}
							}
						}
					}
				}
			}
		}
	}
}
MOTION
Frames: 11
Frame Time: 0.03333333
-0.501036 91.091278 -3.508915 0.000000 0.000000 0.000000 -4.029566 1.056588 2.552576 -1.755177 7.991823 7.802309 15.888584 4.132511 -1.594420 -11.204950 1.176030 -6.030793 1.823514 0.024659 -1.237991 0.000000 0.000000 0.000000 -4.014668 1.072124 2.632166 -4.838171 -9.453159 -15.325677 22.059471 -3.476340 1.359098 -11.713974 -3.181975 8.535173 -2.985022 0.383735 0.731380 0.000000 0.000000 0.000000 -3.151108 1.610482 2.352232 3.551793 -0.384550 0.213623 1.467683 -0.477830 0.723810 0.884217 0.070038 0.143359 0.000000 0.000000 0.000000 0.900409 -0.075690 0.211609 0.182353 0.582382 -0.778100 -4.404872 -4.983598 -1.669441 0.000000 0.000000 0.000000 0.860424 -0.154997 0.388041 0.918915 -2.115012 -15.790381 -0.028584 -0.194502 -0.532617 4.741928 -8.282349 -37.415660 0.953890 -64.852790 0.863745 0.000000 0.000000 0.000000 0.942445 -0.077078 0.439961 1.123995 5.085030 20.496399 1.541107 1.194756 -1.747668 -2.912925 5.567627 57.573358 0.343147 18.473117 0.380242 0.000000 0.000000 0.000000 
-0.545790 91.089684 -3.465076 0.000000 0.000000 0.000000 -4.087037 1.049403 2.595573 -1.729269 8.119647 7.785576 15.830639 4.097924 -1.550414 -11.092269 1.184427 -5.998898 1.846054 0.026474 -1.250687 0.000000 0.000000 0.000000 -4.040424 1.051658 2.667139 -4.813948 -9.417733 -15.339198 22.148186 -3.436379 1.373189 -11.710216 -3.169792 8.625531 -2.996611 0.382799 0.714682 0.000000 0.000000 0.000000 -3.211368 1.670358 2.381349 3.544801 -0.389175 0.203919 1.446482 -0.463567 0.749087 0.930494 0.003112 0.174044 0.000000 0.000000 0.000000 0.931771 -0.070293 0.252484 0.149821 0.676218 -0.917706 -4.254636 -5.000666 -1.638638 0.000000 0.000000 0.000000 0.810367 -0.134982 0.388286 0.955228 -2.076530 -15.771482 -0.120373 -0.417401 -0.524324 4.853459 -8.285979 -37.412204 0.960496 -64.781694 0.869456 0.000000 0.000000 0.000000 0.949652 -0.060383 0.470876 1.163696 4.887984 20.365681 1.172722 1.024044 -1.674416 -2.999075 5.835553 57.245089 0.410531 17.984452 0.432608 0.000000 0.000000 0.000000 
-0.571880 91.092461 -3.425938 0.000000 0.000000 0.000000 -4.125697 1.201451 2.672848 -1.683954 8.235919 7.691543 15.670740 4.057578 -1.501159 -10.933520 1.175221 -5.881188 1.867859 0.027190 -1.272415 0.000000 0.000000 0.000000 -4.077094 1.164742 2.738796 -4.690900 -9.407371 -15.346615 22.230434 -3.449148 1.380504 -11.755161 -3.193926 8.732662 -2.988574 0.375747 0.712622 0.000000 0.000000 0.000000 -3.273919 1.818863 2.439902 3.510292 -0.391413 0.186990 1.416820 -0.454760 0.760876 0.910188 -0.002174 0.200049 0.000000 0.000000 0.000000 0.941525 -0.073723 0.280673 0.168287 0.865828 -1.023829 -3.925091 -4.901885 -1.571245 0.000000 0.000000 0.000000 0.775430 -0.115993 0.372331 1.003932 -2.007908 -15.714455 -0.163512 -0.606554 -0.573067 4.943135 -8.267634 -37.443176 0.996757 -64.737974 0.935552 0.000000 0.000000 0.000000 0.962991 -0.049269 0.483667 1.240512 4.718003 19.994829 0.860610 0.964223 -1.575022 -3.202319 6.052741 57.146523 0.466301 17.426954 0.464676 0.000000 0.000000 0.000000 
-0.570765 91.092834 -3.386944 0.000000 0.000000 0.000000 -4.155324 1.478960 2.765774 -1.639293 8.324856 7.534192 15.468816 3.996615 -1.448630 -10.767710 1.148329 -5.700798 1.887572 0.025778 -1.295919 0.000000 0.000000 0.000000 -4.119943 1.402204 2.829822 -4.476159 -9.426295 -15.344834 22.277560 -3.522016 1.375353 -11.866462 -3.247796 8.840273 -2.955187 0.367009 0.720086 0.000000 0.000000 0.000000 -3.340615 2.022930 2.516576 3.454347 -0.388628 0.173008 1.378572 -0.450934 0.758341 0.846998 0.049657 0.204584 0.000000 0.000000 0.000000 0.925230 -0.084867 0.296840 0.233757 1.142390 -1.092594 -3.455291 -4.705754 -1.466904 0.000000 0.000000 0.000000 0.749164 -0.102711 0.346297 1.057569 -1.925733 -15.627389 -0.193908 -0.730636 -0.632919 4.984155 -8.228962 -37.503794 1.055049 -64.720830 1.048281 0.000000 0.000000 0.000000 0.978589 -0.042417 0.478219 1.342584 4.582481 19.419939 0.653588 0.959297 -1.488967 -3.422168 6.192589 57.286125 0.501993 16.999178 0.467936 0.000000 0.000000 0.000000 
-0.553181 91.085098 -3.357273 0.000000 0.000000 0.000000 -4.181391 1.855972 2.863192 -1.621177 8.372194 7.335710 15.279015 3.902915 -1.394483 -10.633620 1.104896 -5.488389 1.905046 0.023776 -1.316390 0.000000 0.000000 0.000000 -4.161816 1.744950 2.924710 -4.203642 -9.473430 -15.334212 22.288598 -3.650540 1.364614 -12.048532 -3.310114 8.939383 -2.899170 0.361077 0.732553 0.000000 0.000000 0.000000 -3.402187 2.268875 2.600150 3.384110 -0.375807 0.172165 1.334898 -0.452014 0.741866 0.809465 0.100380 0.198372 0.000000 0.000000 0.000000 0.883443 -0.099578 0.301921 0.323946 1.497758 -1.136639 -2.909741 -4.477993 -1.322631 0.000000 0.000000 0.000000 0.733293 -0.099300 0.317201 1.110494 -1.838308 -15.512159 -0.269119 -0.799815 -0.708280 4.971567 -8.184156 -37.589311 1.117228 -64.725844 1.184575 0.000000 0.000000 0.000000 0.997159 -0.041009 0.455890 1.464241 4.485459 18.675105 0.472792 0.925248 -1.422956 -3.475828 6.217122 57.616833 0.518859 17.064734 0.441590 0.000000 0.000000 0.000000 
-0.533016 91.063736 -3.337498 0.000000 0.000000 0.000000 -4.210172 2.300308 2.955014 -1.640362 8.366884 7.120389 15.128528 3.772090 -1.343564 -10.543626 1.049717 -5.278506 1.910068 0.021842 -1.330475 0.000000 0.000000 0.000000 -4.211828 2.164633 3.017286 -3.909883 -9.557765 -15.324866 22.268444 -3.821943 1.354005 -12.278046 -3.353837 9.040276 -2.842517 0.360762 0.746740 0.000000 0.000000 0.000000 -3.458390 2.556730 2.689591 3.312653 -0.349011 0.188658 1.290102 -0.457612 0.716288 0.798054 0.164482 0.200346 0.000000 0.000000 0.000000 0.819830 -0.114196 0.297129 0.416951 1.910771 -1.165533 -2.355569 -4.275682 -1.140553 0.000000 0.000000 0.000000 0.726221 -0.102488 0.292243 1.156497 -1.759320 -15.371155 -0.351338 -0.836131 -0.779649 4.924501 -8.144044 -37.698410 1.171478 -64.759346 1.323689 0.000000 0.000000 0.000000 1.009647 -0.045573 0.422601 1.605164 4.409163 17.792387 0.338811 0.848124 -1.357706 -3.202098 6.165262 58.103074 0.528551 18.002593 0.388204 0.000000 0.000000 0.000000 
-0.509033 91.029823 -3.319992 0.000000 0.000000 0.000000 -4.238350 2.803232 3.043888 -1.703518 8.309463 6.898553 15.014689 3.617698 -1.302782 -10.487747 0.988402 -5.087303 1.892080 0.020677 -1.333750 0.000000 0.000000 0.000000 -4.263894 2.641734 3.103025 -3.623566 -9.699558 -15.326410 22.234837 -4.023872 1.344930 -12.518374 -3.366486 9.166595 -2.811864 0.364619 0.757263 0.000000 0.000000 0.000000 -3.506878 2.882746 2.784893 3.246834 -0.300500 0.225801 1.243856 -0.464862 0.684600 0.796589 0.208571 0.205765 0.000000 0.000000 0.000000 0.741387 -0.122600 0.283079 0.498193 2.355717 -1.192543 -1.869700 -4.143601 -0.928489 0.000000 0.000000 0.000000 0.727711 -0.110035 0.274391 1.197908 -1.688043 -15.222548 -0.405219 -0.851423 -0.823964 4.869803 -8.094566 -37.838650 1.217576 -64.829164 1.450247 0.000000 0.000000 0.000000 1.011329 -0.055723 0.379712 1.763046 4.355384 16.803187 0.269898 0.824996 -1.311554 -2.536599 6.082116 58.672390 0.535156 20.103834 0.320312 0.000000 0.000000 0.000000 
-0.491695 90.991508 -3.307972 0.000000 0.000000 0.000000 -4.253713 3.341134 3.133107 -1.805473 8.208832 6.684380 14.927894 3.447745 -1.273741 -10.420910 0.922275 -4.917987 1.851545 0.021616 -1.330517 0.000000 0.000000 0.000000 -4.315346 3.161834 3.187843 -3.362523 -9.911479 -15.349477 22.199638 -4.246156 1.340087 -12.747032 -3.342283 9.325313 -2.817255 0.370477 0.763721 0.000000 0.000000 0.000000 -3.538550 3.268152 2.887210 3.194165 -0.225511 0.279411 1.196230 -0.466578 0.649714 0.798639 0.206783 0.239044 0.000000 0.000000 0.000000 0.662338 -0.122559 0.259248 0.565025 2.814223 -1.234617 -1.514367 -4.141624 -0.700624 0.000000 0.000000 0.000000 0.741814 -0.119069 0.262671 1.233035 -1.625148 -15.080633 -0.408882 -0.813990 -0.841040 4.821058 -8.014356 -38.022359 1.262317 -64.942265 1.560814 0.000000 0.000000 0.000000 1.001787 -0.069586 0.332752 1.934038 4.329413 15.755004 0.162862 0.888372 -1.256644 -1.444096 6.061548 59.288330 0.555119 23.379104 0.247648 0.000000 0.000000 0.000000 
-0.482092 90.962044 -3.314854 0.000000 0.000000 0.000000 -4.237656 3.902899 3.222533 -1.951251 8.081204 6.481684 14.861564 3.272951 -1.255956 -10.291210 0.857380 -4.764657 1.811667 0.023632 -1.330523 0.000000 0.000000 0.000000 -4.339479 3.718743 3.275975 -3.134703 -10.208103 -15.401592 22.149231 -4.486908 1.334678 -12.956177 -3.288327 9.515374 -2.864852 0.377748 0.766891 0.000000 0.000000 0.000000 -3.533655 3.730878 2.996572 3.162880 -0.120741 0.351109 1.146125 -0.456566 0.612928 0.800726 0.139107 0.247305 0.000000 0.000000 0.000000 0.596873 -0.111425 0.227738 0.624395 3.268287 -1.284787 -1.299839 -4.303041 -0.474093 0.000000 0.000000 0.000000 0.763557 -0.122401 0.254641 1.258991 -1.587762 -14.958835 -0.344182 -0.727569 -0.826138 4.759211 -7.909543 -38.253851 1.311918 -65.114365 1.654006 0.000000 0.000000 0.000000 0.986110 -0.076118 0.288786 2.102709 4.358520 14.702863 0.042894 1.082907 -1.208267 -0.023559 6.174411 59.870474 0.580190 27.567811 0.180275 0.000000 0.000000 0.000000 
-0.478404 90.947983 -3.341087 0.000000 0.000000 0.000000 -4.170073 4.503771 3.313897 -2.171259 7.940908 6.282843 14.804232 3.098594 -1.244150 -10.079983 0.797824 -4.610063 1.783580 0.025647 -1.335308 0.000000 0.000000 0.000000 -4.311595 4.313083 3.367417 -2.945269 -10.585910 -15.477861 22.076225 -4.744335 1.328653 -13.161363 -3.219743 9.714211 -2.920524 0.386614 0.769960 0.000000 0.000000 0.000000 -3.477388 4.275177 3.112845 3.156301 0.016306 0.448675 1.096152 -0.430731 0.575728 0.801324 0.053794 0.255168 0.000000 0.000000 0.000000 0.553241 -0.084771 0.195633 0.675173 3.702736 -1.334448 -1.193440 -4.632066 -0.274544 0.000000 0.000000 0.000000 0.790894 -0.113270 0.246482 1.275786 -1.586742 -14.877629 -0.240205 -0.595186 -0.821931 4.677004 -7.805764 -38.514030 1.367416 -65.336265 1.731598 0.000000 0.000000 0.000000 0.979530 -0.065593 0.251163 2.256287 4.500684 13.693979 -0.122981 1.293232 -1.126277 1.561556 6.457539 60.280210 0.578047 32.306388 0.138230 0.000000 0.000000 0.000000 
-0.480290 90.953194 -3.384991 0.000000 0.000000 0.000000 -4.042279 5.151833 3.409926 -2.490986 7.793588 6.078517 14.753180 2.918624 -1.235840 -9.793984 0.746451 -4.455551 1.770781 0.025400 -1.349056 0.000000 0.000000 0.000000 -4.216030 4.941931 3.463541 -2.817030 -11.036219 -15.577998 21.991015 -5.010932 1.323783 -13.377825 -3.147775 9.884325 -2.911013 0.399795 0.778966 0.000000 0.000000 0.000000 -3.365445 4.916286 3.233749 3.179529 0.182097 0.573107 1.048476 -0.389883 0.539561 0.816238 -0.047943 0.273480 0.000000 0.000000 0.000000 0.540261 -0.044298 0.170806 0.723568 4.106211 -1.380340 -1.160355 -5.101222 -0.125292 0.000000 0.000000 0.000000 0.817909 -0.088989 0.239103 1.283731 -1.631152 -14.831730 -0.116894 -0.457495 -0.788684 4.573040 -7.733339 -38.778235 1.422053 -65.586878 1.787763 0.000000 0.000000 0.000000 0.987269 -0.035492 0.227119 2.386804 4.773913 12.739037 -0.273148 1.470616 -1.064698 3.051344 6.901455 60.389336 0.522115 37.272165 0.125347 0.000000 0.000000 0.000000 
